<?xml version="1.0" standalone="no"?>
<!DOCTYPE svg PUBLIC "-//W3C//DTD SVG 20010904//EN"
 "http://www.w3.org/TR/2001/REC-SVG-20010904/DTD/svg10.dtd">
<svg version="1.0" xmlns="http://www.w3.org/2000/svg"
 width="982.000000pt" height="746.000000pt" viewBox="0 0 982.000000 746.000000"
 preserveAspectRatio="xMidYMid meet">

<g transform="translate(0.000000,746.000000) scale(0.100000,-0.100000)"
fill="#000000" stroke="none">
<path d="M4825 7079 c-27 -5 -165 -28 -305 -52 l-255 -43 -3 -66 c-3 -65 -3
-66 25 -72 15 -3 150 -26 298 -51 149 -25 280 -47 293 -50 20 -5 22 -2 22 44
l0 50 -75 12 -75 12 0 52 c0 59 -10 52 108 70 l42 7 0 49 c0 33 -4 49 -12 48
-7 -1 -35 -5 -63 -10z m-165 -164 c0 -19 -4 -35 -8 -35 -20 0 -238 32 -241 36
-2 2 2 4 10 4 8 1 52 7 99 14 137 22 140 22 140 -19z"/>
<path d="M6540 6970 c-91 -16 -171 -29 -177 -30 -17 0 -18 -80 -2 -80 10 0
199 -31 332 -55 24 -4 27 -2 27 25 0 26 -3 30 -29 30 -46 0 -61 10 -61 40 0
29 18 40 68 40 18 0 22 6 22 30 0 17 -3 30 -7 29 -5 0 -82 -14 -173 -29z m40
-71 c0 -20 -3 -21 -57 -14 -75 9 -88 18 -38 26 81 12 95 11 95 -12z"/>
<path d="M6570 6769 c-14 -5 -28 -17 -33 -25 -7 -12 -11 -11 -29 6 -34 31 -93
27 -129 -9 -26 -26 -29 -36 -29 -90 l0 -61 185 0 185 0 0 64 c0 53 -4 70 -22
90 -26 29 -89 42 -128 25z m-96 -59 c19 -7 26 -17 26 -35 0 -23 -3 -25 -50
-25 -43 0 -50 3 -50 19 0 11 10 27 22 35 27 19 21 18 52 6z m180 -6 c9 -8 16
-24 16 -35 0 -17 -7 -19 -60 -19 -53 0 -60 2 -60 19 0 28 27 51 60 51 16 0 36
-7 44 -16z"/>
<path d="M6820 6722 c0 -11 72 -14 88 -4 8 6 -6 9 -38 11 -27 1 -50 -2 -50 -7z"/>
<path d="M6930 6721 c0 -10 26 -9 36 2 4 4 -2 7 -14 7 -12 0 -22 -4 -22 -9z"/>
<path d="M4260 6666 l0 -45 261 -3 c245 -3 262 -4 275 -22 8 -11 14 -34 14
-52 0 -33 16 -44 68 -44 20 0 22 5 22 50 0 61 -19 101 -62 132 -32 23 -39 23
-305 26 l-273 3 0 -45z"/>
<path d="M6938 6678 c9 -9 15 -9 24 0 9 9 7 12 -12 12 -19 0 -21 -3 -12 -12z"/>
<path d="M6895 6670 c-3 -6 1 -7 9 -4 11 4 16 0 16 -11 0 -12 -8 -16 -32 -13
-20 2 -32 8 -30 16 1 6 -7 12 -18 12 -11 0 -20 -7 -20 -15 0 -8 3 -14 8 -13 4
0 15 -2 25 -7 9 -4 31 -5 47 -3 17 3 30 1 30 -4 0 -4 10 -7 23 -7 17 1 18 2 4
6 -10 3 -22 16 -27 29 -10 25 -24 31 -35 14z"/>
<path d="M6823 6588 c-2 -5 12 -8 31 -8 19 0 37 3 39 8 3 4 -11 7 -30 7 -19 0
-37 -3 -40 -7z"/>
<path d="M6913 6575 c0 -18 19 -15 25 3 2 7 -3 12 -10 12 -8 0 -15 -7 -15 -15z"/>
<path d="M6950 6579 c0 -5 5 -7 10 -4 6 3 10 8 10 11 0 2 -4 4 -10 4 -5 0 -10
-5 -10 -11z"/>
<path d="M6395 6548 c-53 -28 -62 -98 -19 -139 24 -23 32 -24 159 -24 119 0
135 2 155 20 35 31 42 62 25 99 -9 18 -27 38 -41 45 -32 14 -252 14 -279 -1z
m273 -75 c2 -14 -4 -26 -18 -33 -25 -13 -207 -12 -232 2 -18 9 -24 39 -11 52
4 3 63 5 132 4 121 -3 126 -4 129 -25z"/>
<path d="M6856 6553 c-15 -4 -16 -7 -5 -15 10 -7 8 -8 -8 -5 -13 3 -23 1 -23
-4 0 -5 35 -8 78 -7 62 1 67 2 25 5 -52 4 -70 17 -35 26 11 3 12 5 2 5 -8 0
-24 -3 -34 -5z"/>
<path d="M6827 6483 c-4 -3 -7 -17 -7 -30 0 -22 3 -23 73 -22 39 1 60 4 45 6
-31 5 -39 32 -10 34 19 1 -22 17 -48 18 -12 0 -11 -2 2 -10 23 -13 12 -39 -17
-39 -31 0 -39 14 -19 34 12 13 13 16 1 16 -7 0 -17 -3 -20 -7z"/>
<path d="M4322 6440 c-96 -59 -96 -201 0 -260 30 -18 51 -20 251 -20 239 0
252 3 301 60 22 26 26 42 26 90 0 48 -4 64 -26 90 -49 57 -62 60 -301 60 -200
0 -221 -2 -251 -20z m469 -96 c23 -21 24 -42 3 -72 -15 -22 -20 -22 -219 -22
l-205 0 -16 25 c-20 30 -12 73 16 83 10 4 105 6 210 5 166 -1 194 -4 211 -19z"/>
<path d="M6820 6373 c0 -13 5 -23 10 -23 13 0 13 11 0 30 -8 12 -10 11 -10 -7z"/>
<path d="M6886 6372 c-4 -6 -13 -9 -21 -5 -8 3 -15 1 -15 -4 0 -5 28 -10 63
-11 41 -1 55 2 42 7 -11 5 -26 6 -34 3 -7 -3 -17 1 -21 8 -5 8 -10 9 -14 2z"/>
<path d="M6376 6325 c-23 -21 -26 -32 -26 -85 l0 -60 186 0 186 0 -4 65 c-6
98 -18 105 -183 105 -126 0 -133 -1 -159 -25z m282 -37 c7 -7 12 -22 12 -35 0
-23 -1 -23 -135 -23 -134 0 -135 0 -135 23 0 41 17 47 135 47 73 0 115 -4 123
-12z"/>
<path d="M6924 6318 c-5 -7 -2 -9 9 -5 9 3 18 -1 21 -10 4 -9 9 -13 13 -10 7
7 -15 37 -28 37 -4 0 -11 -5 -15 -12z"/>
<path d="M6827 6313 c-4 -3 -7 -16 -7 -28 0 -16 7 -21 32 -23 33 -3 34 7 1 12
-20 3 -25 27 -8 38 7 5 6 8 -1 8 -6 0 -14 -3 -17 -7z"/>
<path d="M6891 6311 c-8 -5 -9 -11 -3 -15 5 -3 12 1 16 9 6 17 6 18 -13 6z"/>
<path d="M6890 6268 c0 -4 18 -8 40 -8 22 0 40 4 40 9 0 5 -18 8 -40 8 -22 0
-40 -4 -40 -9z"/>
<path d="M6405 6129 c-43 -12 -55 -35 -55 -106 l0 -63 185 0 185 0 0 25 c0 24
-2 25 -70 25 -67 0 -70 1 -70 24 0 18 7 25 32 30 91 18 108 26 108 51 0 30 -2
30 -85 9 -52 -13 -71 -14 -93 -5 -39 16 -100 21 -137 10z m119 -65 c18 -46 9
-54 -59 -54 -57 0 -65 2 -65 19 0 43 10 51 65 51 39 0 54 -4 59 -16z"/>
<path d="M4260 6055 l0 -45 320 0 320 0 0 45 0 45 -320 0 -320 0 0 -45z"/>
<path d="M4752 5924 l-132 -34 -31 22 c-25 19 -47 24 -116 27 -104 4 -153 -9
-187 -50 -24 -29 -26 -37 -26 -140 l0 -109 320 0 320 0 0 45 0 45 -125 0 -125
0 0 34 0 34 88 21 c180 45 162 35 162 91 0 28 -3 50 -7 49 -5 0 -68 -16 -141
-35z m-214 -90 c17 -12 22 -25 22 -60 l0 -44 -105 0 -105 0 0 42 c0 63 19 78
99 78 44 0 74 -5 89 -16z"/>
<path d="M6395 5918 c-53 -28 -62 -98 -19 -139 24 -23 32 -24 159 -24 119 0
135 2 155 20 49 44 43 112 -11 140 -34 18 -253 21 -284 3z m272 -64 c15 -39
-9 -49 -121 -52 -62 -1 -114 2 -126 8 -19 10 -27 40 -13 53 3 4 62 7 130 7
105 0 125 -2 130 -16z"/>
<path d="M5140 5861 c0 -14 8 -21 27 -23 l27 -3 -2 -147 -2 -148 25 0 25 0 0
150 0 150 31 0 c24 0 30 4 27 18 -3 14 -16 17 -81 20 -71 3 -77 1 -77 -17z"/>
<path d="M5329 5876 c-2 -2 -3 -79 -1 -170 3 -157 4 -166 22 -166 18 0 20 7
20 66 0 62 1 65 22 62 19 -2 25 -14 37 -65 13 -55 17 -63 38 -63 27 0 28 3 6
80 -13 48 -14 65 -5 85 17 37 15 126 -4 153 -13 18 -25 22 -73 22 -32 0 -60
-2 -62 -4z m99 -45 c9 -5 12 -25 10 -57 -3 -47 -4 -49 -35 -52 l-33 -3 0 54
c0 29 3 57 7 60 9 9 35 8 51 -2z"/>
<path d="M5530 5710 l0 -170 70 0 c68 0 70 1 70 25 0 23 -3 25 -50 25 l-50 0
0 50 0 50 35 0 c28 0 35 4 35 20 0 13 -7 20 -20 21 -11 1 -26 2 -32 3 -9 1
-13 18 -13 51 l0 50 48 3 c39 3 47 6 47 23 0 17 -7 19 -70 19 l-70 0 0 -170z"/>
<path d="M5690 5710 l0 -170 70 0 c68 0 70 1 70 25 0 23 -4 25 -45 25 l-45 0
0 145 0 145 -25 0 -25 0 0 -170z"/>
<path d="M5850 5710 l0 -170 70 0 c68 0 70 1 70 25 0 23 -4 25 -45 25 l-45 0
0 50 0 50 35 0 c31 0 35 3 35 26 0 25 -2 26 -35 20 l-35 -7 0 56 0 55 45 0
c38 0 45 3 45 20 0 18 -7 20 -70 20 l-70 0 0 -170z"/>
<path d="M6023 5853 c3 -16 16 -92 29 -170 21 -132 25 -143 44 -143 24 0 28
12 40 118 3 34 10 62 14 62 4 0 13 -40 20 -90 12 -82 15 -90 35 -90 20 0 23
10 44 143 12 78 24 154 27 170 5 24 2 27 -19 27 -27 0 -27 0 -43 -128 -3 -29
-8 -51 -11 -49 -2 3 -10 43 -16 88 -11 80 -13 84 -37 84 -23 0 -26 -5 -33 -65
-5 -36 -11 -76 -14 -90 -6 -23 -6 -23 -13 10 -4 19 -11 61 -15 93 -6 53 -8 57
-32 57 -22 0 -25 -3 -20 -27z"/>
<path d="M3070 5592 l0 -137 53 1 c39 1 53 6 55 18 3 12 -5 16 -32 16 l-36 0
0 120 c0 113 -1 120 -20 120 -19 0 -20 -7 -20 -138z"/>
<path d="M3190 5597 c0 -74 3 -136 6 -140 3 -3 12 -3 20 0 11 4 14 33 14 139
0 127 -1 134 -20 134 -19 0 -20 -7 -20 -133z"/>
<path d="M3260 5596 l0 -134 41 -4 c56 -5 82 10 93 54 7 29 6 42 -8 63 -13 20
-15 30 -7 38 6 6 11 27 11 47 0 50 -24 70 -83 70 l-47 0 0 -134z m85 59 c0
-23 -5 -31 -22 -33 -20 -3 -23 1 -23 33 0 32 3 36 23 33 17 -2 22 -10 22 -33z
m4 -97 c13 -35 -5 -67 -36 -68 -9 0 -13 16 -13 45 0 39 3 45 20 45 12 0 24 -9
29 -22z"/>
<path d="M3420 5596 l0 -134 48 -4 c55 -5 72 -1 72 17 0 9 -14 15 -37 17 -36
3 -38 5 -41 41 -3 35 -2 37 27 37 24 0 31 4 31 20 0 16 -7 20 -30 20 -28 0
-30 2 -30 40 l0 40 40 0 c33 0 40 3 40 20 0 18 -7 20 -60 20 l-60 0 0 -134z"/>
<path d="M3560 5592 c0 -117 2 -139 15 -139 16 0 17 2 19 62 1 28 6 41 17 43
13 2 20 -9 29 -47 10 -43 33 -71 48 -57 2 3 -1 28 -8 57 -10 41 -10 59 0 89
13 40 8 93 -11 117 -7 7 -32 13 -60 13 l-49 0 0 -138z m85 53 c0 -36 -2 -40
-25 -40 -23 0 -25 4 -23 40 1 22 2 41 2 43 1 2 11 2 24 0 19 -3 22 -9 22 -43z"/>
<path d="M3710 5710 c0 -13 7 -20 20 -20 19 0 20 -7 20 -115 0 -63 2 -115 4
-115 2 0 11 -3 20 -6 14 -5 16 9 16 115 0 114 1 121 20 121 13 0 20 7 20 20 0
18 -7 20 -60 20 -53 0 -60 -2 -60 -20z"/>
<path d="M3841 5599 c-12 -72 -19 -134 -16 -139 10 -17 34 1 40 31 5 22 12 29
31 29 20 0 24 -5 24 -29 0 -34 10 -44 30 -31 12 7 12 21 2 87 -29 178 -31 183
-61 183 l-28 0 -22 -131z m63 9 c6 -40 5 -48 -8 -48 -17 0 -21 35 -10 78 8 29
10 27 18 -30z"/>
<path d="M3990 5595 l0 -135 48 0 c72 0 82 15 82 131 0 121 -10 139 -81 139
l-49 0 0 -135z m85 -5 c0 -91 -1 -95 -22 -98 -23 -3 -23 -1 -23 98 0 99 0 101
23 98 21 -3 22 -7 22 -98z"/>
<path d="M6372 5697 c-31 -33 -30 -90 3 -122 23 -24 29 -25 155 -25 75 0 140
5 152 11 25 13 50 72 41 96 -14 41 -45 63 -90 63 -39 0 -43 -2 -43 -25 0 -22
4 -25 34 -25 26 0 36 -5 41 -20 14 -43 -9 -51 -139 -48 l-121 3 0 30 c0 27 4
30 33 33 26 3 32 7 32 28 0 21 -4 24 -38 24 -27 0 -45 -7 -60 -23z"/>
<path d="M6836 5707 c-14 -10 -16 -25 -14 -82 3 -66 5 -70 27 -73 28 -4 53 21
44 44 -8 21 -23 17 -23 -6 0 -11 -7 -20 -15 -20 -12 0 -15 13 -15 60 0 47 3
60 15 60 8 0 15 -7 15 -15 0 -8 5 -15 10 -15 14 0 13 33 -2 48 -15 15 -20 15
-42 -1z"/>
<path d="M6921 5706 c-7 -9 -11 -41 -9 -83 3 -64 5 -68 27 -71 35 -5 51 22 51
84 0 71 -37 108 -69 70z m39 -77 c0 -44 -3 -60 -12 -57 -14 5 -23 90 -14 115
12 31 26 -1 26 -58z"/>
<path d="M7116 5701 c-24 -26 -19 -129 7 -145 22 -14 51 3 55 33 4 27 -14 28
-21 0 -11 -42 -32 -14 -32 42 0 43 3 54 18 57 10 2 17 -3 17 -12 0 -9 5 -16
10 -16 18 0 11 39 -9 50 -25 13 -25 13 -45 -9z"/>
<path d="M7209 5704 c-15 -18 -15 -132 0 -147 5 -5 19 -7 32 -5 22 3 24 8 27
73 2 57 0 72 -14 82 -23 17 -29 16 -45 -3z m41 -69 c0 -46 -12 -76 -25 -63 -9
8 -11 94 -3 111 15 30 28 8 28 -48z"/>
<path d="M7000 5630 c0 -47 4 -80 10 -80 6 0 10 21 10 47 0 52 11 49 30 -9 6
-21 18 -38 26 -38 11 0 14 17 14 80 0 58 -4 80 -13 80 -8 0 -11 -14 -9 -45 2
-25 0 -45 -5 -45 -5 0 -14 20 -21 45 -7 28 -18 45 -27 45 -12 0 -15 -15 -15
-80z"/>
<path d="M7290 5630 c0 -47 4 -80 10 -80 6 0 10 14 10 30 0 17 5 30 10 30 6 0
13 -13 17 -30 3 -16 12 -30 19 -30 11 0 13 7 8 28 -4 15 -8 28 -9 30 -2 2 1
16 5 32 14 48 3 70 -36 70 l-34 0 0 -80z m53 53 c7 -12 -11 -53 -23 -53 -5 0
-10 14 -10 30 0 28 21 42 33 23z"/>
<path d="M7390 5631 l0 -81 30 0 c35 0 43 19 38 101 -3 53 -4 54 -35 57 l-33
3 0 -80z m50 -1 c0 -47 -3 -60 -15 -60 -12 0 -15 13 -15 60 0 47 3 60 15 60
12 0 15 -13 15 -60z"/>
<path d="M7480 5630 c0 -47 4 -80 10 -80 6 0 10 33 10 80 0 47 -4 80 -10 80
-6 0 -10 -33 -10 -80z"/>
<path d="M7536 5663 c-4 -27 -10 -63 -13 -80 -6 -36 11 -46 20 -13 3 11 10 20
17 20 7 0 14 -9 17 -20 6 -24 23 -27 23 -4 0 9 -5 45 -12 80 -9 49 -15 64 -29
64 -12 0 -18 -12 -23 -47z m30 -51 c-12 -11 -18 7 -10 30 l8 23 4 -23 c2 -13
1 -26 -2 -30z"/>
<path d="M4563 5486 l-303 -51 0 -66 0 -66 38 -7 c20 -3 164 -28 320 -54 l282
-49 0 47 c0 53 1 53 -97 66 l-53 7 0 52 c0 59 -5 56 103 71 l47 6 0 49 c0 40
-3 49 -17 48 -10 -1 -154 -24 -320 -53z m97 -122 l0 -37 -37 7 c-21 3 -75 11
-121 17 -45 7 -80 14 -78 17 6 6 162 30 204 31 30 1 32 -1 32 -35z"/>
<path d="M492 5348 c-20 -20 -13 -53 18 -83 30 -28 39 -58 21 -70 -5 -3 -16 2
-24 10 -20 19 -27 19 -27 0 0 -23 46 -41 65 -25 24 20 18 59 -15 97 -16 18
-30 38 -30 43 0 16 21 22 36 9 19 -16 30 -4 14 16 -15 18 -41 20 -58 3z"/>
<path d="M606 5338 c-9 -41 -26 -141 -26 -155 0 -22 18 -14 22 9 4 33 36 35
44 4 3 -14 10 -26 15 -26 12 0 10 28 -5 115 -9 51 -17 71 -29 73 -10 2 -18 -5
-21 -20z m33 -80 c1 -10 -6 -18 -15 -18 -11 0 -14 5 -10 16 3 9 6 25 7 37 0
21 1 21 9 2 5 -11 9 -28 9 -37z"/>
<path d="M692 5268 c2 -56 7 -92 13 -90 6 1 11 21 12 45 1 23 2 49 3 57 1 8
10 -13 21 -48 29 -90 44 -77 45 36 0 70 -3 92 -13 92 -9 0 -13 -18 -14 -62
l-1 -63 -19 63 c-13 40 -25 62 -35 62 -12 0 -14 -16 -12 -92z"/>
<path d="M800 5350 c0 -5 7 -10 15 -10 12 0 15 -16 15 -86 0 -64 3 -85 13 -82
8 3 14 34 17 86 3 45 9 82 15 81 5 0 11 4 13 10 2 7 -14 11 -42 11 -25 0 -46
-4 -46 -10z"/>
<path d="M910 5356 c0 -2 -7 -43 -15 -91 -9 -48 -14 -90 -11 -92 9 -10 26 9
26 28 0 12 7 19 20 19 15 0 20 -7 20 -27 0 -20 3 -24 11 -16 8 8 8 34 -2 97
-11 71 -16 86 -31 86 -10 0 -18 -2 -18 -4z m30 -93 c0 -13 -6 -23 -13 -23 -9
0 -12 11 -9 36 5 39 22 29 22 -13z"/>
<path d="M1030 5271 c0 -50 5 -93 10 -96 6 -4 10 12 10 39 0 39 3 46 20 46 11
0 20 5 20 10 0 6 -9 10 -20 10 -16 0 -20 7 -20 30 0 25 4 30 25 30 14 0 25 5
25 10 0 6 -16 10 -35 10 l-35 0 0 -89z"/>
<path d="M1120 5265 l0 -95 35 0 c24 0 35 5 35 15 0 9 -9 15 -25 15 -21 0 -25
5 -25 30 0 23 4 30 20 30 11 0 20 5 20 10 0 6 -9 10 -21 10 -30 0 -23 54 9 58
35 5 26 22 -13 22 l-35 0 0 -95z"/>
<path d="M4800 5075 l0 -85 -270 0 -270 0 0 -45 0 -45 320 0 320 0 0 130 0
130 -50 0 -50 0 0 -85z"/>
<path d="M8410 5115 c0 -14 12 -19 33 -16 4 0 7 -46 7 -104 0 -98 1 -105 20
-105 19 0 20 7 20 105 0 98 1 105 20 105 11 0 20 7 20 15 0 12 -13 15 -60 15
-47 0 -60 -3 -60 -15z"/>
<path d="M8550 5021 c0 -102 2 -111 22 -125 30 -21 44 -20 68 4 17 17 20 33
20 125 0 98 -1 105 -20 105 -19 0 -20 -7 -20 -105 0 -98 -1 -105 -20 -105 -19
0 -20 7 -20 105 0 87 -3 105 -15 105 -12 0 -15 -19 -15 -109z"/>
<path d="M8696 5108 c-11 -16 -16 -46 -16 -105 0 -72 3 -85 22 -103 12 -11 30
-20 40 -20 26 0 58 36 58 65 0 18 -5 25 -20 25 -15 0 -20 -7 -20 -25 0 -18 -5
-25 -20 -25 -20 0 -21 5 -18 88 2 69 6 87 18 87 8 0 16 -10 18 -22 5 -32 42
-31 42 0 0 53 -75 77 -104 35z"/>
<path d="M8820 5020 c0 -107 1 -110 26 -127 24 -15 29 -15 53 -2 25 14 26 17
29 127 2 94 0 112 -12 112 -12 0 -16 -19 -18 -102 -3 -95 -4 -103 -23 -103
-19 0 -20 8 -23 103 -2 82 -6 102 -17 102 -12 0 -15 -20 -15 -110z"/>
<path d="M8959 5128 c0 -2 -1 -56 -2 -120 -2 -107 -1 -118 15 -118 15 0 18 10
19 73 l1 72 17 -70 c23 -98 43 -99 64 -3 l15 73 1 -72 c1 -66 3 -73 21 -73 19
0 20 7 20 121 l0 120 -27 -3 c-27 -3 -29 -7 -43 -88 l-16 -85 -11 45 c-6 25
-14 64 -18 88 -6 36 -10 42 -31 42 -13 0 -24 -1 -25 -2z"/>
<path d="M9185 5108 c-14 -65 -35 -211 -31 -215 11 -12 36 8 36 27 0 31 44 23
48 -7 2 -15 10 -23 23 -23 15 0 19 5 15 18 -6 20 -36 197 -36 212 0 6 -11 10
-25 10 -17 0 -26 -7 -30 -22z m38 -90 c4 -29 2 -38 -9 -38 -15 0 -18 20 -8 58
8 28 10 26 17 -20z"/>
<path d="M9300 5010 c0 -100 3 -120 15 -120 12 0 15 15 15 73 0 82 10 78 36
-15 14 -50 20 -58 41 -58 l24 0 -3 117 c-3 103 -5 118 -20 121 -16 3 -18 -6
-19 -75 l-1 -78 -25 78 c-20 60 -29 77 -44 77 -18 0 -19 -9 -19 -120z"/>
<path d="M3080 4666 c-147 -41 -277 -164 -320 -303 -19 -62 -20 -92 -20 -677
0 -663 1 -669 56 -764 60 -103 184 -196 295 -221 62 -15 165 -13 226 3 157 42
289 169 329 318 11 41 14 136 14 431 l0 377 -230 0 -230 0 0 -145 0 -145 81 0
80 0 -3 -224 c-3 -250 -4 -253 -79 -304 -29 -20 -44 -23 -94 -20 -74 5 -115
30 -144 92 -21 43 -22 51 -19 617 l3 574 24 38 c67 108 240 99 295 -16 12 -27
16 -66 16 -170 l0 -136 150 2 150 1 0 152 c0 182 -17 250 -84 341 -67 92 -153
151 -261 179 -61 17 -175 16 -235 0z"/>
<path d="M870 4636 c0 -34 35 -41 49 -9 15 33 15 33 -19 33 -25 0 -30 -4 -30
-24z"/>
<path d="M950 4647 c0 -22 -39 -57 -64 -57 -19 0 -25 -7 -29 -32 -3 -18 -15
-85 -26 -148 -22 -124 -77 -449 -166 -975 -31 -181 -71 -417 -89 -523 -24
-138 -30 -195 -21 -198 6 -3 74 -3 150 -2 l140 3 33 210 c19 116 36 216 38
223 2 9 43 12 157 12 l153 0 35 -222 34 -223 153 -3 c83 -1 152 1 152 6 0 4
-45 275 -100 602 -55 327 -128 763 -162 968 l-62 372 -163 0 c-128 0 -163 -3
-163 -13z m180 -826 c27 -195 50 -358 50 -363 0 -4 -49 -8 -109 -8 l-108 0 13
88 c7 48 29 202 49 342 39 285 47 332 52 310 1 -8 25 -174 53 -369z"/>
<path d="M1700 3686 l0 -976 145 0 145 0 0 370 0 370 98 0 98 0 84 -342 c46
-189 85 -355 88 -370 l4 -28 160 0 c124 0 159 3 156 13 -3 6 -51 197 -109 423
l-104 411 30 38 c58 73 76 101 98 155 21 52 22 69 22 310 0 218 -3 264 -18
315 -39 127 -124 215 -247 257 -60 20 -89 22 -357 26 l-293 4 0 -976z m556
655 c68 -31 78 -65 82 -265 5 -222 -7 -265 -89 -315 -29 -18 -50 -21 -146 -21
l-113 0 0 310 0 310 113 0 c87 0 121 -5 153 -19z"/>
<path d="M3772 3688 l3 -973 415 0 415 0 0 145 0 145 -272 3 -273 2 0 265 0
265 200 0 200 0 0 145 0 145 -197 2 -198 3 0 265 0 265 273 3 272 2 0 145 0
145 -420 0 -420 0 2 -972z"/>
<path d="M4700 3685 l0 -975 145 0 145 0 0 496 c0 440 -2 495 -15 490 -13 -4
-13 -2 -5 14 15 29 12 55 -10 83 -15 18 -17 28 -9 33 7 4 9 3 6 -3 -4 -6 -1
-13 7 -16 10 -4 15 11 21 65 6 69 7 70 21 43 8 -15 14 -35 14 -45 0 -10 6 -25
13 -32 7 -7 14 -25 15 -39 1 -15 35 -129 76 -255 41 -126 119 -365 173 -532
l98 -302 155 2 155 3 3 798 c2 634 0 797 -10 798 -16 0 -61 56 -61 75 0 7 -4
11 -8 9 -11 -8 -70 65 -63 77 9 14 55 -41 48 -56 -3 -6 7 3 23 19 18 20 36 29
51 27 22 -3 22 -1 22 97 l0 101 -145 0 -145 0 2 -192 3 -193 24 3 c20 2 22 0
11 -13 -7 -8 -16 -13 -20 -10 -20 13 -28 -73 -8 -93 9 -9 9 -12 0 -12 -9 0
-12 -93 -12 -390 0 -253 -4 -390 -10 -390 -5 0 -10 8 -10 18 0 10 -9 45 -19
78 -11 32 -50 160 -86 284 -37 124 -72 234 -79 245 -7 11 -16 40 -19 65 -3 25
-17 79 -30 120 -13 41 -50 166 -83 277 l-59 203 -162 0 -163 0 0 -975z m921
668 c22 -26 21 -87 -1 -101 -11 -6 -21 -8 -25 -3 -3 5 3 12 13 15 23 8 23 63
1 77 -20 12 -53 11 -67 -3 -17 -17 -15 -53 3 -68 8 -7 12 -16 9 -21 -3 -5 1
-7 8 -4 8 3 20 -10 31 -31 20 -41 16 -55 -8 -30 -12 12 -13 16 -3 17 9 0 9 2
-2 6 -23 10 -65 52 -57 59 3 3 0 13 -8 21 -12 11 -13 19 -3 36 6 12 17 27 25
32 22 16 70 15 84 -2z m-150 -131 c15 -13 19 -21 11 -26 -7 -4 -12 -1 -12 7 0
8 -10 19 -22 25 -13 6 -18 11 -12 11 7 1 22 -7 35 -17z m64 -41 c-8 -14 -45
-14 -45 0 0 6 9 9 20 6 11 -3 20 0 20 6 0 6 3 8 6 4 3 -3 3 -10 -1 -16z m-69
-53 c4 -6 3 -8 -4 -4 -5 3 -13 0 -15 -6 -3 -8 -6 -6 -6 5 -1 19 14 23 25 5z
m-272 -144 c3 -8 2 -12 -4 -9 -6 3 -10 10 -10 16 0 14 7 11 14 -7z m-69 -4 c3
-5 1 -10 -4 -10 -6 0 -11 5 -11 10 0 6 2 10 4 10 3 0 8 -4 11 -10z m86 -53
c-10 -9 -11 -8 -5 6 3 10 9 15 12 12 3 -3 0 -11 -7 -18z m-156 -35 c-3 -3 -11
0 -18 7 -9 10 -8 11 6 5 10 -3 15 -9 12 -12z m145 8 c0 -5 -5 -10 -11 -10 -5
0 -7 5 -4 10 3 6 8 10 11 10 2 0 4 -4 4 -10z m-275 -50 c-3 -5 -1 -10 6 -10 7
0 10 -3 6 -6 -9 -9 -28 6 -22 17 4 5 8 9 11 9 3 0 2 -4 -1 -10z m-30 -139 c3
-5 2 -12 -3 -15 -5 -3 -9 1 -9 9 0 17 3 19 12 6z m50 -21 c3 -6 -1 -7 -9 -4
-18 7 -21 14 -7 14 6 0 13 -4 16 -10z"/>
<path d="M5790 4609 c0 -30 4 -48 10 -44 23 14 79 -35 80 -71 0 -21 -40 -66
-56 -63 -24 4 -33 -4 -32 -31 l1 -30 154 0 153 0 0 -830 0 -830 145 0 145 0 0
830 0 830 155 0 155 0 0 145 0 145 -320 0 c-309 0 -320 -1 -320 -19 0 -19 -43
-61 -61 -61 -5 0 -9 7 -9 16 0 8 4 13 9 9 9 -5 41 31 41 47 0 5 -22 8 -50 8
-55 0 -61 -9 -29 -41 23 -23 21 -33 -4 -23 -15 6 -33 41 -29 57 1 4 -19 7 -44
7 -32 0 -44 -4 -41 -12 2 -7 14 -12 25 -10 23 3 30 -12 11 -24 -15 -9 40 -64
65 -64 19 0 20 -1 3 -17 -17 -17 -20 -16 -53 20 -19 20 -39 37 -44 37 -13 0
-32 48 -24 61 3 5 -4 9 -15 9 -18 0 -21 -6 -21 -51z"/>
<path d="M6792 3688 l3 -973 143 -3 142 -3 0 976 0 975 -145 0 -145 0 2 -972z"/>
<path d="M7190 3685 l0 -975 145 0 145 0 1 623 1 622 33 -100 c19 -55 91 -275
160 -490 69 -214 146 -448 169 -520 l43 -130 157 -3 156 -3 0 976 0 975 -145
0 -145 0 -1 -652 -1 -653 -28 90 c-15 50 -90 297 -165 550 -75 253 -151 506
-168 563 l-31 102 -163 0 -163 0 0 -975z"/>
<path d="M8626 4638 c-3 -13 -19 -104 -35 -203 -17 -99 -44 -261 -61 -360 -17
-99 -51 -299 -76 -445 -24 -146 -69 -410 -99 -587 -30 -177 -55 -324 -55 -327
0 -3 67 -6 150 -6 147 0 150 0 155 23 5 20 46 279 62 385 l6 42 153 0 c151 0
154 0 159 -22 5 -22 65 -412 65 -423 0 -7 295 -7 302 0 4 5 -300 1846 -317
1923 -5 22 -6 22 -205 22 -199 0 -200 0 -204 -22z m214 -472 c0 -25 87 -656
95 -693 5 -23 4 -23 -105 -23 l-111 0 5 33 c8 44 72 499 87 619 7 53 17 94 21
92 4 -3 8 -16 8 -28z"/>
<path d="M5790 4495 c0 -38 3 -45 19 -45 38 0 48 10 45 41 -5 41 -11 49 -40
49 -22 0 -24 -4 -24 -45z"/>
<path d="M5652 4428 c-13 -17 0 -47 32 -77 l26 -24 0 50 c0 37 -4 53 -16 57
-23 9 -30 8 -42 -6z"/>
<path d="M1050 2487 c-19 -7 -44 -27 -57 -46 -22 -32 -23 -43 -23 -219 l0
-184 39 -39 c34 -34 44 -39 85 -39 39 0 52 6 84 34 l37 34 3 174 c2 107 -1
187 -7 210 -19 64 -93 98 -161 75z m78 -79 c8 -8 12 -63 12 -179 0 -162 -1
-168 -22 -183 -29 -20 -34 -20 -58 4 -18 18 -20 33 -20 176 0 88 4 164 10 175
12 22 59 26 78 7z"/>
<path d="M1344 2490 c-11 -4 -33 -22 -47 -40 -22 -25 -27 -42 -27 -84 0 -45 5
-60 34 -97 19 -24 57 -66 86 -92 47 -45 51 -52 48 -90 -2 -32 -8 -44 -27 -54
-33 -16 -56 -2 -72 42 -12 33 -16 35 -44 29 -38 -8 -39 -9 -30 -31 5 -10 7
-23 6 -30 -1 -6 14 -28 34 -47 32 -32 41 -36 90 -36 46 0 58 4 84 30 69 70 52
152 -55 259 -69 69 -74 77 -74 116 0 25 6 48 15 55 22 19 64 4 71 -25 6 -25
21 -30 60 -19 16 4 20 11 16 27 -17 72 -100 115 -168 87z"/>
<path d="M2371 2483 c-64 -32 -71 -56 -71 -256 0 -173 4 -203 34 -233 23 -22
56 -34 95 -34 33 0 49 7 79 34 l37 34 3 174 c2 107 -1 187 -7 210 -21 69 -105
104 -170 71z m87 -75 c8 -8 12 -63 12 -179 0 -160 -1 -169 -21 -183 -23 -16
-47 -12 -66 12 -16 20 -18 314 -3 343 12 22 59 26 78 7z"/>
<path d="M679 2483 c-1 -8 0 -500 1 -515 0 -5 16 -8 35 -8 l35 0 0 100 0 100
30 0 c17 0 30 -3 31 -7 0 -5 10 -48 23 -98 l22 -90 37 -3 c45 -4 45 -3 12 128
l-25 99 21 35 c18 31 21 49 18 121 -4 77 -7 87 -32 112 -25 26 -35 28 -117 31
-50 2 -90 0 -91 -5z m158 -85 c16 -13 18 -111 3 -139 -8 -14 -21 -19 -50 -19
l-40 0 0 89 0 88 37 -4 c20 -2 43 -9 50 -15z"/>
<path d="M1630 2487 c0 -10 -81 -483 -86 -503 -6 -22 -3 -24 34 -24 40 0 41 1
47 38 16 99 13 93 58 90 45 -3 40 5 63 -105 4 -19 11 -23 43 -23 l38 0 -43
253 c-24 138 -44 258 -44 265 0 8 -18 12 -55 12 -30 0 -55 -2 -55 -3z m70
-204 c6 -49 14 -96 16 -105 4 -15 -1 -18 -31 -18 -35 0 -36 1 -31 28 6 27 25
160 26 175 0 4 2 7 4 7 2 0 9 -39 16 -87z"/>
<path d="M1870 2225 l0 -265 35 0 35 0 0 100 0 100 33 0 34 0 22 -100 22 -100
40 0 c21 0 39 4 39 9 0 5 -11 52 -25 103 -30 111 -30 125 -7 151 13 15 17 37
17 106 0 51 -6 95 -14 109 -19 35 -71 52 -156 52 l-75 0 0 -265z m165 176 c11
-19 7 -131 -5 -146 -7 -9 -29 -15 -51 -15 l-39 0 0 85 0 85 44 0 c25 0 47 -4
51 -9z"/>
<path d="M2180 2225 l0 -265 35 0 35 0 0 265 0 265 -35 0 -35 0 0 -265z"/>
<path d="M5070 2471 c-50 -16 -86 -41 -143 -100 -63 -65 -110 -87 -153 -71
-18 7 -24 17 -24 41 0 25 5 33 31 42 28 11 30 15 24 47 -8 44 -8 44 -41 36
-39 -10 -81 -58 -89 -100 -15 -76 34 -142 112 -153 66 -9 105 11 191 98 72 72
83 79 119 79 46 0 63 -14 63 -53 0 -24 -7 -31 -40 -45 -37 -16 -40 -20 -40
-55 0 -38 0 -39 33 -32 86 19 121 60 121 142 1 50 -2 57 -36 89 -21 19 -46 34
-57 34 -11 0 -25 2 -33 4 -7 2 -24 1 -38 -3z"/>
<path d="M8160 2381 c0 -63 4 -102 11 -107 20 -12 29 20 29 114 0 85 -1 92
-20 92 -19 0 -20 -7 -20 -99z"/>
<path d="M8603 2444 c-21 -32 -23 -48 -23 -170 0 -127 1 -134 20 -134 18 0 20
7 20 65 0 59 2 65 20 65 29 0 76 26 84 45 3 9 6 39 6 66 0 94 -82 134 -127 63z
m87 -68 c-5 -49 -6 -51 -37 -54 l-33 -3 0 56 0 56 38 -2 37 -3 -5 -50z"/>
<path d="M8762 2313 l3 -168 63 -3 c61 -3 62 -2 62 23 0 23 -4 25 -40 25 -31
0 -40 4 -40 18 -3 252 -4 267 -28 270 l-22 3 2 -168z"/>
<path d="M8975 2468 c-2 -7 -13 -69 -24 -138 -11 -69 -23 -139 -27 -156 -5
-28 -4 -31 18 -30 18 1 24 8 28 36 4 31 9 35 37 38 29 3 31 1 38 -37 5 -31 11
-41 26 -41 25 0 24 13 -6 185 -14 77 -25 143 -25 148 0 12 -60 8 -65 -5z m45
-118 c0 -14 4 -31 9 -39 15 -23 1 -52 -23 -49 -11 2 -20 6 -19 11 0 4 4 35 8
68 5 41 10 57 16 48 5 -8 9 -25 9 -39z"/>
<path d="M9082 2458 c2 -17 10 -23 28 -23 l25 0 3 -147 c2 -141 3 -148 23
-148 19 0 20 5 17 145 -2 92 1 145 7 146 6 1 18 1 28 0 12 -2 17 5 17 23 0 26
-1 26 -76 26 -72 0 -75 -1 -72 -22z"/>
<path d="M9274 2465 c-4 -8 -3 -22 0 -31 3 -8 2 -13 -2 -10 -5 3 -16 -48 -26
-112 -10 -64 -20 -129 -23 -144 -5 -23 -2 -28 15 -28 22 0 32 18 32 56 0 21 5
24 35 24 30 0 35 -3 35 -24 0 -37 10 -56 31 -56 24 0 24 -1 -6 176 -14 81 -25
151 -25 156 0 15 -60 9 -66 -7z m47 -150 c4 -44 2 -50 -16 -50 -21 0 -22 1 -9
90 5 39 8 45 14 30 4 -12 9 -43 11 -70z"/>
<path d="M7620 2436 c0 -33 1 -33 76 -56 41 -12 73 -25 69 -28 -3 -3 -36 -15
-73 -27 -66 -20 -67 -21 -70 -58 l-3 -37 127 45 c115 41 134 45 220 45 l94 0
0 35 0 35 -100 0 c-90 0 -109 4 -211 40 -62 22 -116 40 -121 40 -4 0 -8 -15
-8 -34z"/>
<path d="M2935 2414 c-143 -24 -263 -44 -267 -44 -5 0 -8 -27 -8 -59 0 -69
-20 -58 174 -91 65 -12 138 -20 161 -19 25 2 51 -3 60 -11 34 -28 25 1 -14 43
-41 44 -43 45 -136 58 -52 7 -93 15 -90 17 5 5 166 31 193 32 6 0 12 -9 12
-19 0 -11 11 -32 24 -47 23 -27 24 -27 30 -7 4 12 13 24 21 27 9 3 15 18 15
36 0 25 4 30 25 30 13 0 43 7 65 16 36 14 40 20 40 50 0 29 -3 34 -22 33 -13
0 -140 -20 -283 -45z"/>
<path d="M6220 2425 c0 -33 2 -35 35 -35 l35 0 0 -200 0 -200 35 0 35 0 0 200
0 200 40 0 c39 0 40 1 40 35 l0 35 -110 0 -110 0 0 -35z"/>
<path d="M6480 2226 c0 -215 1 -234 18 -238 41 -11 49 3 49 92 0 82 1 85 24
85 24 0 25 -1 59 -132 10 -40 13 -43 45 -43 21 0 35 5 35 13 0 6 -11 52 -25
100 l-24 89 21 28 c17 24 20 39 16 110 -3 75 -6 84 -31 106 -25 21 -38 24
-108 24 l-79 0 0 -234z m148 91 c3 -65 2 -67 -24 -77 -52 -20 -59 -12 -60 73
l0 78 40 -3 41 -3 3 -68z"/>
<path d="M6740 2270 c0 -213 7 -248 59 -274 58 -30 119 -15 151 36 18 30 20
51 20 231 l0 197 -35 0 -35 0 0 -189 c0 -202 -4 -221 -50 -221 -34 0 -40 33
-40 224 l0 186 -35 0 -35 0 0 -190z"/>
<path d="M7085 2266 c0 -107 -3 -197 -7 -201 -4 -4 -22 -10 -40 -14 -28 -6
-33 -11 -36 -39 -3 -31 -2 -32 38 -32 34 0 48 6 76 34 l34 34 0 206 0 206 -32
0 -33 0 0 -194z"/>
<path d="M7190 2270 c0 -213 7 -248 59 -274 16 -9 43 -16 58 -16 38 0 91 34
103 66 6 14 10 113 10 220 l0 194 -35 0 -35 0 0 -189 c0 -159 -3 -192 -16
-205 -8 -9 -22 -16 -29 -16 -7 0 -21 7 -29 16 -13 13 -16 46 -16 205 l0 189
-35 0 -35 0 0 -190z"/>
<path d="M7460 2226 l0 -234 30 -4 c17 -3 32 -2 35 0 3 3 5 110 5 239 l0 233
-35 0 -35 0 0 -234z"/>
<path d="M8360 2431 c0 -26 4 -31 23 -31 24 0 57 -44 57 -77 -1 -35 -35 -66
-74 -67 -29 -1 -33 -3 -21 -12 21 -16 19 -34 -5 -34 -13 0 -20 -7 -20 -19 0
-11 -3 -27 -6 -36 -5 -13 -2 -16 17 -13 18 2 25 12 32 41 8 32 13 37 37 37 29
0 40 -15 40 -56 0 -19 5 -24 26 -24 19 0 24 4 20 18 -2 9 -10 58 -17 107 -10
69 -19 97 -38 122 -14 18 -32 33 -38 33 -7 0 -13 6 -13 14 0 8 -4 18 -10 21
-6 4 -10 -7 -10 -24z"/>
<path d="M8346 2348 c-11 -41 -7 -58 13 -58 31 0 44 63 15 74 -22 8 -21 9 -28
-16z"/>
<path d="M3090 2236 c0 -32 53 -76 90 -76 16 0 35 -3 44 -6 13 -5 16 1 16 30
0 25 -4 34 -13 30 -8 -3 -33 7 -58 20 -57 33 -79 33 -79 2z"/>
<path d="M7620 2115 l0 -95 154 0 c106 0 157 4 162 12 5 7 3 8 -6 3 -8 -5 -11
-4 -6 3 4 6 13 9 21 6 8 -4 12 -10 9 -15 -3 -5 13 -9 35 -9 l41 0 -22 25 c-11
13 -25 22 -30 19 -4 -3 -8 0 -8 7 0 8 -13 10 -39 6 -49 -6 -61 6 -61 58 0 40
-1 41 -30 37 -28 -4 -30 -7 -30 -48 l0 -44 -60 0 -60 0 0 65 0 65 -35 0 -35 0
0 -95z"/>
<path d="M8000 2159 c0 -31 4 -48 10 -44 6 3 10 -1 10 -9 0 -9 -4 -16 -8 -16
-5 0 -9 -7 -9 -15 0 -8 4 -15 10 -15 5 0 17 -10 28 -22 18 -23 18 -22 19 75
l0 97 -30 0 c-29 0 -30 -1 -30 -51z"/>
<path d="M8190 2183 c0 -13 27 -49 33 -43 3 3 -3 16 -14 29 -10 13 -19 19 -19
14z"/>
<path d="M8257 2166 c20 -27 33 -25 33 5 0 14 -7 19 -25 19 -26 0 -26 0 -8
-24z"/>
<path d="M4734 2141 c-42 -25 -68 -82 -59 -129 8 -44 25 -69 62 -93 25 -17 50
-19 217 -19 172 0 192 2 221 20 34 21 65 73 65 109 0 40 -28 90 -62 111 -30
18 -50 20 -223 20 -168 0 -194 -2 -221 -19z m397 -71 c22 -12 26 -59 7 -78 -8
-8 -63 -12 -182 -12 -144 0 -172 3 -188 17 -23 21 -23 38 2 63 18 18 33 20
181 20 91 0 169 -4 180 -10z"/>
<path d="M3158 2058 c0 -35 -1 -69 -1 -75 1 -10 -32 -13 -129 -13 -114 0 -129
-2 -126 -16 4 -25 -19 -28 -32 -5 -8 17 -20 21 -56 21 -25 0 -43 -4 -40 -8 3
-5 18 -7 35 -4 22 3 32 -1 41 -17 6 -12 8 -31 5 -41 -6 -19 -1 -20 189 -20
l196 0 0 120 0 120 -40 0 -40 0 -2 -62z"/>
<path d="M8160 2046 c0 -8 5 -18 10 -21 6 -3 10 3 10 14 0 12 -4 21 -10 21 -5
0 -10 -6 -10 -14z"/>
<path d="M8200 2051 c0 -5 16 -9 35 -9 19 0 32 4 29 9 -3 5 -18 9 -35 9 -16 0
-29 -4 -29 -9z"/>
<path d="M8342 1993 c-2 -59 -5 -72 -19 -76 -17 -4 -17 -5 0 -6 24 -1 29 15
24 90 l-3 64 -2 -72z"/>
<path d="M8370 2049 c0 -5 8 -9 18 -7 9 1 23 -1 29 -5 9 -6 11 -3 7 7 -7 18
-54 22 -54 5z"/>
<path d="M8475 2048 c-2 -7 -6 -34 -10 -60 l-6 -48 32 0 c30 0 31 1 24 33 -4
17 -7 37 -8 44 0 7 -5 11 -11 10 -6 -1 -10 6 -10 16 2 20 -5 23 -11 5z m27
-68 c2 -18 -2 -26 -16 -28 -14 -3 -17 0 -12 13 3 9 6 26 6 38 0 28 17 10 22
-23z"/>
<path d="M8585 2050 c-3 -5 -1 -10 4 -10 6 0 11 -5 11 -11 0 -5 -4 -8 -8 -5
-4 2 -8 -22 -8 -55 0 -32 3 -59 6 -59 4 0 6 12 6 28 0 15 4 46 7 69 7 40 -4
65 -18 43z"/>
<path d="M8638 1996 c-4 -74 0 -99 13 -91 12 8 12 155 0 155 -5 0 -11 -29 -13
-64z"/>
<path d="M8692 2048 c-7 -7 -12 -38 -12 -69 0 -61 15 -84 46 -72 17 6 16 8 -6
13 -23 5 -25 11 -25 60 0 50 2 55 23 58 12 2 20 8 17 13 -8 13 -29 11 -43 -3z"/>
<path d="M8783 2053 c-7 -2 -13 -9 -13 -14 0 -6 7 -6 18 0 13 7 23 6 31 -2 10
-9 11 -8 6 6 -7 17 -19 20 -42 10z"/>
<path d="M8233 1975 c0 -38 2 -53 4 -32 2 20 2 52 0 70 -2 17 -4 1 -4 -38z"/>
<path d="M8407 2013 c-4 -3 -7 -11 -7 -17 0 -6 5 -5 12 2 6 6 9 14 7 17 -3 3
-9 2 -12 -2z"/>
<path d="M8823 1980 c0 -25 2 -35 4 -22 2 12 2 32 0 45 -2 12 -4 2 -4 -23z"/>
<path d="M8000 1988 c0 -8 5 -19 12 -26 9 -9 9 -15 0 -24 -7 -7 -12 -22 -12
-35 0 -21 -4 -23 -54 -23 -48 0 -55 -2 -58 -22 -2 -12 -9 -23 -16 -26 -9 -3
-11 3 -6 22 6 25 5 26 -41 26 -45 0 -46 -1 -43 -27 l3 -28 138 -3 138 -3 -3
88 c-3 88 -3 88 -30 91 -19 2 -28 -1 -28 -10z"/>
<path d="M8167 1993 c-7 -12 -3 -71 6 -79 4 -4 7 14 7 39 0 45 -4 56 -13 40z"/>
<path d="M8772 1965 c0 -16 2 -22 5 -12 2 9 2 23 0 30 -3 6 -5 -1 -5 -18z"/>
<path d="M8386 1964 c-4 -10 -1 -14 6 -12 15 5 23 28 10 28 -5 0 -13 -7 -16
-16z"/>
<path d="M8621 1964 c0 -11 3 -14 6 -6 3 7 2 16 -1 19 -3 4 -6 -2 -5 -13z"/>
<path d="M2660 1938 c0 -25 3 -29 12 -20 20 20 57 14 82 -13 24 -26 46 -33 46
-15 0 6 7 10 15 10 8 0 15 7 15 15 0 10 -11 15 -35 15 -24 0 -37 6 -45 20 -8
15 -21 20 -50 20 -38 0 -40 -1 -40 -32z"/>
<path d="M8730 1955 c0 -8 4 -15 10 -15 5 0 7 7 4 15 -4 8 -8 15 -10 15 -2 0
-4 -7 -4 -15z"/>
<path d="M8783 1915 c16 -18 18 -18 34 -2 10 10 12 17 6 17 -7 0 -15 -5 -18
-10 -5 -8 -12 -7 -23 1 -14 11 -14 10 1 -6z"/>
<path d="M8375 1910 c3 -5 12 -7 20 -3 21 7 19 13 -6 13 -11 0 -18 -4 -14 -10z"/>
<path d="M2675 1890 c-4 -6 8 -10 30 -10 22 0 34 4 30 10 -3 6 -17 10 -30 10
-13 0 -27 -4 -30 -10z"/>
<path d="M7620 1849 c0 -31 1 -32 38 -24 48 9 64 9 83 1 13 -6 16 -1 15 23
l-1 31 -67 0 -68 0 0 -31z"/>
<path d="M5107 1838 c-115 -30 -118 -30 -139 -12 -17 16 -37 19 -124 19 -100
0 -105 -1 -131 -28 -26 -26 -28 -34 -31 -127 l-4 -100 276 0 276 0 0 40 0 39
-102 3 -103 3 -3 27 c-4 29 3 32 136 63 l72 17 0 44 c0 24 -1 44 -2 43 -2 0
-56 -14 -121 -31z m-179 -80 c7 -7 12 -29 12 -50 l0 -38 -90 0 -90 0 0 38 c0
53 13 62 90 62 38 0 71 -5 78 -12z"/>
<path d="M2662 1838 c3 -7 21 -14 41 -16 28 -2 37 1 37 12 0 12 -11 16 -41 16
-28 0 -39 -4 -37 -12z"/>
<path d="M3150 1770 l0 -80 -80 0 -80 0 0 60 0 60 -40 0 -40 0 0 -60 0 -60
-85 0 -85 0 0 54 c0 51 -1 53 -25 48 -14 -2 -32 1 -40 8 -13 11 -15 0 -15 -89
l0 -101 290 0 290 0 0 120 0 120 -45 0 -45 0 0 -80z"/>
<path d="M7960 1756 c-83 -22 -86 -22 -115 -4 -42 25 -58 23 -78 -11 -23 -39
-23 -39 21 -43 35 -3 37 -5 40 -40 l3 -38 -70 0 c-71 0 -71 0 -71 28 -1 15
-11 40 -24 56 l-24 29 -12 -22 c-6 -12 -10 -36 -8 -54 l3 -32 16 29 c12 21 18
25 24 16 5 -8 1 -18 -10 -27 -11 -7 -15 -13 -9 -13 5 0 1 -5 -8 -11 -10 -5
-18 -21 -18 -34 l0 -25 220 0 220 0 0 30 0 29 -82 3 c-78 3 -83 4 -84 26 -1
16 6 24 25 28 14 3 40 9 56 14 17 5 42 11 58 14 23 6 27 11 27 41 0 19 -3 35
-7 34 -5 0 -46 -11 -93 -23z"/>
<path d="M3997 1763 c-4 -3 -7 -28 -7 -55 0 -45 2 -49 23 -46 16 2 23 11 25
31 2 15 -1 27 -7 27 -6 0 -11 -11 -11 -25 0 -14 -4 -25 -10 -25 -5 0 -10 20
-10 45 0 42 13 60 23 33 2 -7 8 -10 12 -6 4 4 4 11 0 17 -7 12 -28 14 -38 4z"/>
<path d="M4054 1720 c1 -49 3 -55 24 -58 21 -3 22 0 20 55 l-2 58 -3 -53 c-5
-67 -26 -65 -34 4 l-6 49 1 -55z"/>
<path d="M4120 1715 c0 -51 2 -55 23 -54 16 1 18 2 5 6 -21 5 -24 39 -5 46 10
4 10 6 0 6 -20 1 -15 39 5 44 13 4 11 5 -5 6 -21 1 -23 -3 -23 -54z"/>
<path d="M4171 1713 c1 -32 4 -48 6 -35 2 12 8 22 12 22 4 0 13 -10 19 -22 8
-19 10 -14 9 32 -2 49 -5 55 -24 58 -22 3 -23 0 -22 -55z m35 11 c-5 -13 -10
-14 -18 -6 -6 6 -8 18 -4 28 5 13 10 14 18 6 6 -6 8 -18 4 -28z"/>
<path d="M4241 1713 c1 -52 2 -54 9 -23 4 19 8 29 9 21 0 -8 3 -12 6 -9 8 8
-6 68 -16 68 -5 0 -8 -26 -8 -57z"/>
<path d="M4277 1723 c-3 -27 -1 -52 4 -57 5 -6 9 12 9 47 0 31 -2 57 -4 57 -2
0 -6 -21 -9 -47z"/>
<path d="M4313 1715 c0 -33 2 -45 4 -27 2 18 2 45 0 60 -2 15 -4 0 -4 -33z"/>
<path d="M4341 1752 c-6 -11 -8 -32 -6 -48 2 -16 4 -32 4 -36 1 -5 10 -8 20
-8 21 0 36 26 21 35 -6 4 -10 -1 -10 -9 0 -9 -4 -16 -10 -16 -5 0 -10 20 -10
45 0 25 5 45 10 45 6 0 10 -7 10 -16 0 -8 4 -13 10 -9 13 8 1 35 -16 35 -7 0
-18 -8 -23 -18z"/>
<path d="M4403 1715 c-5 -30 -6 -55 -1 -55 4 0 8 5 8 10 0 14 27 12 34 -2 3
-7 3 10 -1 37 -10 85 -25 89 -40 10z m24 -7 c-3 -7 -5 -2 -5 12 0 14 2 19 5
13 2 -7 2 -19 0 -25z"/>
<path d="M7677 1759 c-14 -8 -16 -14 -6 -25 22 -27 92 -7 82 24 -6 15 -51 15
-76 1z"/>
<path d="M2940 1511 l-275 -47 -3 -59 -3 -60 283 -48 c156 -26 286 -47 291
-47 4 0 7 20 7 44 l0 44 -65 7 -65 7 0 48 c0 54 0 54 83 65 l47 6 0 45 c0 29
-4 44 -12 43 -7 -1 -137 -22 -288 -48z m80 -106 c0 -35 -1 -36 -32 -31 -18 3
-67 10 -108 16 -41 6 -76 12 -77 14 -2 2 43 10 99 18 57 9 106 16 111 17 4 0
7 -15 7 -34z"/>
<path d="M4680 1445 l0 -115 275 0 275 0 0 115 0 115 -40 0 -40 0 0 -75 0 -75
-75 0 c-53 0 -75 4 -76 13 0 6 0 31 1 55 l2 42 -45 0 c-29 0 -45 -4 -44 -12 0
-7 -1 -32 -1 -55 l-2 -43 -75 0 -75 0 0 75 0 75 -40 0 -40 0 0 -115z"/>
<path d="M7620 1445 l0 -95 220 0 220 0 0 95 0 95 -30 0 c-29 0 -29 -1 -32
-62 l-3 -63 -60 0 -60 0 -3 43 c-3 39 -5 42 -33 42 -28 0 -29 -2 -29 -45 l0
-45 -60 0 -60 0 0 65 0 65 -35 0 -35 0 0 -95z"/>
<path d="M8219 1474 c-33 -24 -59 -23 -38 2 9 11 8 14 -5 14 -10 0 -16 -9 -16
-25 0 -20 5 -25 23 -25 13 0 32 9 42 20 10 11 24 20 32 20 17 0 17 -26 1 -34
-7 -3 -4 -5 7 -3 12 1 21 11 23 23 5 32 -31 36 -69 8z"/>
<path d="M1473 1465 c-3 -9 2 -24 11 -34 12 -13 14 -21 7 -26 -6 -3 -11 -1
-11 6 0 7 -3 10 -6 6 -11 -10 6 -26 21 -20 19 7 19 27 0 43 -20 16 -19 34 1
26 8 -3 12 -2 9 4 -9 15 -25 12 -32 -5z"/>
<path d="M1526 1449 c-9 -47 -8 -67 3 -50 5 7 14 10 20 7 12 -8 14 16 5 52 -9
31 -20 27 -28 -9z"/>
<path d="M1582 1440 c1 -41 2 -43 10 -18 6 17 6 34 -1 45 -8 14 -10 8 -9 -27z"/>
<path d="M1607 1443 c-4 -21 -2 -42 3 -47 7 -7 10 7 10 37 0 57 -5 60 -13 10z"/>
<path d="M1640 1465 c7 -8 10 -21 7 -28 -3 -8 -2 -20 3 -27 5 -8 9 3 12 29 3
35 1 41 -15 41 -16 0 -17 -3 -7 -15z"/>
<path d="M1683 1435 c0 -27 2 -38 4 -22 2 15 2 37 0 50 -2 12 -4 0 -4 -28z"/>
<path d="M1716 1469 c-10 -32 -13 -69 -5 -69 5 0 9 6 9 13 0 6 7 3 16 -8 14
-19 15 -17 9 20 -8 45 -22 66 -29 44z"/>
<path d="M1764 1467 c-3 -9 -4 -28 -2 -44 4 -34 32 -38 36 -5 2 12 -1 22 -7
22 -6 0 -8 -6 -5 -14 3 -8 1 -17 -5 -21 -7 -4 -11 7 -11 29 0 34 12 48 23 26
3 -6 4 -5 3 2 -3 18 -25 22 -32 5z"/>
<path d="M1814 1467 c-10 -27 0 -72 16 -72 11 0 15 11 15 39 0 40 -20 61 -31
33z m26 -27 c0 -16 -4 -30 -10 -30 -5 0 -10 14 -10 30 0 17 5 30 10 30 6 0 10
-13 10 -30z"/>
<path d="M1890 1436 c0 -47 9 -57 29 -32 18 21 10 70 -11 74 -15 3 -18 -4 -18
-42z m30 -1 c0 -13 -4 -27 -10 -30 -6 -4 -10 8 -10 30 0 22 4 34 10 30 6 -3
10 -17 10 -30z"/>
<path d="M1940 1435 c0 -36 3 -45 18 -44 10 0 12 3 5 6 -7 2 -13 11 -13 18 0
7 6 16 13 18 10 4 10 6 0 6 -7 1 -13 7 -13 15 0 8 6 17 13 19 7 3 5 6 -5 6
-15 1 -18 -8 -18 -44z"/>
<path d="M1982 1443 c-1 -24 0 -43 2 -43 2 0 13 -3 23 -6 17 -6 17 -6 1 7 -9
8 -19 30 -21 49 -4 33 -4 33 -5 -7z"/>
<path d="M2050 1435 c0 -26 5 -45 11 -45 6 0 8 7 5 17 -4 9 -1 20 6 25 10 6
10 8 1 8 -20 0 -15 28 5 33 13 4 11 5 -5 6 -21 1 -23 -4 -23 -44z"/>
<path d="M2104 1465 c-3 -8 1 -22 10 -30 9 -9 16 -21 16 -26 0 -12 -17 -12
-23 1 -3 6 -4 5 -3 -2 4 -19 25 -21 32 -3 4 8 -1 24 -10 34 -20 22 -21 35 0
27 8 -3 12 -2 9 4 -9 15 -25 12 -31 -5z"/>
<path d="M2158 1440 c5 -45 21 -55 20 -11 -1 15 2 33 6 40 4 7 0 11 -11 11
-16 0 -18 -6 -15 -40z"/>
<path d="M2200 1435 c0 -36 3 -45 18 -44 10 0 12 3 5 6 -7 2 -13 11 -13 18 0
7 6 16 13 18 10 4 10 6 0 6 -19 1 -15 29 5 34 13 4 11 5 -5 6 -21 1 -23 -4
-23 -44z"/>
<path d="M2249 1468 c-1 -7 -2 -25 -3 -40 -2 -16 1 -28 6 -28 4 0 8 8 9 18 0
15 1 14 8 -3 7 -16 9 -14 14 14 4 18 4 37 1 42 -8 13 -34 11 -35 -3z m31 -19
c0 -5 -4 -9 -10 -9 -5 0 -10 7 -10 16 0 8 5 12 10 9 6 -3 10 -10 10 -16z"/>
<path d="M2300 1441 c0 -43 8 -54 29 -42 19 12 10 75 -11 79 -15 3 -18 -4 -18
-37z m30 0 c0 -17 -4 -33 -10 -36 -6 -4 -10 8 -10 29 0 20 5 36 10 36 6 0 10
-13 10 -29z"/>
<path d="M2423 1454 c27 -15 29 -34 2 -34 -8 0 -17 -5 -21 -11 -7 -12 37 -2
46 11 3 4 12 9 20 12 10 3 2 11 -24 22 -48 20 -60 20 -23 0z"/>
<path d="M3590 1436 c0 -7 7 -19 15 -26 21 -17 19 -34 -2 -25 -15 5 -16 4 -5
-6 9 -10 15 -10 24 -1 9 9 7 16 -7 32 -16 18 -17 23 -5 30 13 8 12 10 -2 10
-10 0 -18 -6 -18 -14z"/>
<path d="M3646 1434 c-11 -29 -6 -50 12 -50 14 0 17 6 14 28 -5 34 -18 44 -26
22z"/>
<path d="M3691 1410 c1 -42 1 -43 9 -16 6 17 5 36 0 45 -7 11 -9 3 -9 -29z"/>
<path d="M3717 1421 c-4 -19 -5 -36 -2 -39 10 -11 16 7 13 40 l-3 33 -8 -34z"/>
<path d="M3765 1439 c-4 -5 0 -18 9 -28 21 -23 20 -35 -1 -26 -15 5 -16 4 -5
-6 9 -10 15 -10 24 -1 9 9 7 16 -7 32 -16 18 -17 23 -5 30 9 6 10 10 3 10 -6
0 -15 -5 -18 -11z"/>
<path d="M3816 1428 c-3 -13 -6 -32 -6 -43 0 -17 2 -17 10 -5 9 13 11 13 21 0
8 -12 10 -10 5 10 -3 14 -6 33 -6 43 0 25 -17 21 -24 -5z"/>
<path d="M3862 1413 c-2 -35 1 -43 16 -43 11 0 13 3 5 8 -6 4 -13 23 -16 42
-4 33 -4 33 -5 -7z"/>
<path d="M3896 1416 c2 -16 4 -32 4 -37 0 -5 5 -9 10 -9 6 0 10 9 10 20 0 11
-4 20 -9 20 -5 0 -12 8 -14 18 -2 9 -3 4 -1 -12z"/>
<path d="M3925 1421 c3 -18 5 -39 5 -45 0 -6 5 -4 10 4 9 13 11 13 20 0 8 -12
10 -11 10 6 0 14 -6 21 -17 20 -10 0 -20 9 -25 24 -6 20 -7 18 -3 -9z"/>
<path d="M3940 1429 c0 -11 5 -17 10 -14 6 3 10 13 10 21 0 8 -4 14 -10 14 -5
0 -10 -9 -10 -21z"/>
<path d="M3980 1410 c0 -34 3 -41 18 -38 12 2 17 13 17 38 0 25 -5 36 -17 38
-15 3 -18 -4 -18 -38z m30 0 c0 -16 -4 -30 -10 -30 -5 0 -10 14 -10 30 0 17 5
30 10 30 6 0 10 -13 10 -30z"/>
<path d="M4032 1413 c4 -51 33 -54 33 -3 0 26 -5 36 -18 38 -16 3 -18 -2 -15
-35z m28 3 c0 -14 -4 -28 -10 -31 -6 -4 -10 7 -10 24 0 17 5 31 10 31 6 0 10
-11 10 -24z"/>
<path d="M4081 1408 c1 -24 4 -34 6 -24 4 15 7 16 14 5 6 -10 9 -8 9 9 0 13
-4 20 -10 17 -5 -3 -10 1 -10 10 0 9 5 13 10 10 6 -3 10 -1 10 4 0 6 -7 11
-15 11 -11 0 -15 -11 -14 -42z"/>
<path d="M4150 1411 c0 -23 4 -41 8 -41 4 0 6 16 4 35 -5 45 15 47 21 3 l5
-33 -2 35 c-1 25 -6 36 -18 38 -15 3 -18 -4 -18 -37z"/>
<path d="M4200 1410 c0 -31 4 -40 18 -40 11 0 13 3 5 8 -14 9 -13 54 2 64 6 5
3 8 -7 8 -14 0 -18 -9 -18 -40z"/>
<path d="M4281 1418 c0 -20 -7 -39 -13 -41 -10 -4 -10 -6 0 -6 17 -1 24 21 19
56 -3 24 -4 23 -6 -9z"/>
<path d="M4304 1415 c1 -28 5 -40 16 -40 11 0 15 12 17 40 0 22 -1 29 -3 15
-10 -50 -18 -55 -25 -15 l-7 40 2 -40z"/>
<path d="M4360 1413 c-3 -23 -2 -39 3 -34 5 5 7 24 5 42 -3 33 -4 33 -8 -8z"/>
<path d="M4384 1410 c1 -24 6 -35 16 -35 11 0 15 12 16 40 l1 40 -4 -37 c-5
-47 -20 -50 -26 -5 -4 32 -4 32 -3 -3z"/>
<path d="M4433 1437 c4 -10 7 -28 8 -40 0 -22 0 -22 10 1 7 18 5 28 -8 40 -16
16 -16 16 -10 -1z"/>
<path d="M2498 1433 c6 -2 18 -2 25 0 6 3 1 5 -13 5 -14 0 -19 -2 -12 -5z"/>
<path d="M8167 1413 c-4 -3 -7 -17 -7 -30 0 -21 4 -23 54 -22 56 2 106 19 55
19 -18 0 -28 6 -32 20 -4 14 -14 20 -34 20 -16 0 -33 -3 -36 -7z m53 -18 c0
-16 -35 -21 -44 -6 -8 12 4 21 26 21 10 0 18 -7 18 -15z"/>
<path d="M2539 1370 c-1 -5 -2 -16 -3 -22 -1 -18 -47 -23 -57 -6 -7 10 -9 9
-9 -3 0 -18 47 -32 56 -17 3 4 10 6 15 3 5 -4 9 8 9 24 0 29 -8 44 -11 21z"/>
<path d="M8160 1336 c0 -8 17 -17 43 -21 l42 -8 -42 -10 c-68 -16 -56 -37 22
-37 68 0 94 19 28 21 -40 1 -38 3 11 14 32 7 25 21 -14 28 -21 4 -20 4 8 6 61
2 32 21 -33 21 -48 0 -65 -4 -65 -14z"/>
<path d="M2404 1329 c-3 -5 9 -9 25 -9 17 0 31 2 31 4 0 8 -51 13 -56 5z"/>
<path d="M7684 1310 c-45 -18 -64 -58 -64 -131 l0 -69 220 0 220 0 0 30 0 29
-82 3 -83 3 -5 45 c-3 25 -9 51 -14 59 -22 34 -138 53 -192 31z m134 -65 c6
-3 12 -20 12 -40 l0 -35 -70 0 -70 0 0 35 c0 22 6 37 18 44 15 9 77 6 110 -4z"/>
<path d="M2660 1165 l0 -125 290 0 290 0 0 45 0 45 -125 0 -125 0 0 60 0 60
-40 0 -40 0 0 -59 0 -59 -81 -4 c-44 -2 -83 -1 -85 1 -2 2 -4 40 -4 83 l0 78
-40 0 -40 0 0 -125z"/>
<path d="M5045 1274 c-23 -8 -69 -44 -110 -84 -80 -79 -110 -94 -155 -79 -23
9 -30 17 -30 38 0 32 16 51 43 51 17 0 18 5 12 38 -8 46 -8 46 -41 38 -68 -17
-109 -103 -83 -173 21 -54 59 -78 127 -78 68 0 96 17 187 112 55 57 64 63 101
63 47 0 64 -14 64 -53 0 -24 -7 -31 -40 -45 -35 -15 -40 -21 -40 -49 0 -40 8
-45 54 -31 58 18 93 56 101 110 16 109 -82 183 -190 142z"/>
<path d="M2536 1263 c-4 -4 -36 -6 -72 -4 -42 2 -64 -1 -64 -8 0 -7 27 -11 75
-11 60 0 75 3 75 15 0 17 -3 18 -14 8z"/>
<path d="M8218 1237 c-33 -6 -58 -15 -58 -22 0 -7 26 -17 57 -24 69 -14 73
-14 73 -1 0 6 -7 10 -15 10 -8 0 -15 7 -15 15 0 8 7 15 15 15 8 0 15 5 15 10
0 6 -3 9 -7 9 -5 -1 -34 -6 -65 -12z m15 -24 c-7 -2 -19 -2 -25 0 -7 3 -2 5
12 5 14 0 19 -2 13 -5z"/>
<path d="M2531 1211 c-8 -5 -20 -7 -28 -4 -7 3 -13 -1 -13 -8 0 -11 -2 -11 -8
-1 -6 8 -9 2 -9 -18 0 -24 4 -30 21 -29 16 1 17 2 4 6 -25 6 -11 31 23 38 16
4 29 11 29 16 0 11 -1 11 -19 0z"/>
<path d="M2405 1200 c-12 -19 6 -50 28 -49 22 0 22 0 -1 10 -18 7 -22 14 -17
29 7 21 1 27 -10 10z"/>
<path d="M8165 1160 c-4 -6 5 -10 19 -10 16 0 26 -6 26 -15 0 -10 -10 -15 -27
-15 -14 0 -23 -3 -19 -7 11 -11 126 -14 126 -3 0 6 -13 10 -30 10 -20 0 -30 5
-30 15 0 10 10 15 31 15 17 0 28 4 24 10 -3 6 -30 10 -60 10 -30 0 -57 -4 -60
-10z"/>
<path d="M2528 1153 c7 -3 16 -2 19 1 4 3 -2 6 -13 5 -11 0 -14 -3 -6 -6z"/>
<path d="M2532 1090 c-10 -17 -10 -20 3 -20 8 0 15 9 15 20 0 11 -1 20 -3 20
-1 0 -8 -9 -15 -20z"/>
<path d="M2450 1080 c-20 -7 -17 -8 18 -7 26 0 38 3 30 9 -15 9 -14 9 -48 -2z"/>
<path d="M8164 1075 c-13 -32 4 -45 54 -45 52 0 79 18 68 45 -6 17 -46 21 -46
5 0 -5 7 -10 15 -10 8 0 15 -4 15 -10 0 -5 -20 -10 -44 -10 -25 0 -48 5 -51
10 -3 6 1 10 9 10 9 0 16 5 16 10 0 16 -30 12 -36 -5z"/>
<path d="M7620 1026 l0 -44 150 -28 c83 -15 147 -31 143 -34 -5 -4 -72 -20
-150 -35 l-143 -28 0 -48 0 -49 220 0 220 0 0 35 0 34 -132 3 -133 3 133 29
c129 29 132 30 132 56 0 27 -3 28 -107 49 -170 35 -172 39 -25 40 l132 1 0 30
0 30 -220 0 -220 0 0 -44z"/>
<path d="M2411 1041 c-7 -5 -12 -14 -10 -20 2 -6 10 -2 17 9 14 22 13 23 -7
11z"/>
<path d="M2455 1037 c33 -19 20 -44 -20 -41 -19 2 -35 -1 -35 -7 0 -6 30 -9
75 -8 41 1 75 6 75 10 0 5 -15 8 -32 7 -23 -2 -32 1 -30 11 4 18 -17 41 -37
41 -13 -1 -12 -3 4 -13z"/>
<path d="M8164 1005 c-13 -33 4 -45 61 -45 59 0 79 16 55 45 -16 19 -56 19
-63 0 -5 -11 0 -13 25 -8 24 5 30 3 26 -8 -6 -17 -76 -25 -91 -10 -7 7 -5 12
6 17 9 3 17 10 17 15 0 15 -30 10 -36 -6z"/>
<path d="M2950 949 c-124 -21 -240 -41 -257 -44 -33 -6 -33 -6 -33 -65 0 -33
3 -60 8 -60 4 0 134 -22 290 -49 l282 -48 0 43 c0 46 5 43 -92 60 -38 6 -38 7
-38 54 l0 48 48 6 c80 12 82 13 82 57 0 38 -1 39 -32 38 -18 -1 -134 -18 -258
-40z m70 -110 l0 -32 -47 7 c-27 4 -74 9 -105 13 -32 3 -58 9 -58 13 0 7 116
25 178 28 30 2 32 0 32 -29z"/>
<path d="M5146 983 c-10 -3 -118 -22 -240 -42 l-221 -37 -3 -56 -3 -56 88 -16
c164 -29 443 -76 453 -76 5 0 10 18 10 39 0 44 -2 45 -82 56 l-48 6 0 44 c0
48 1 49 83 60 l47 6 0 40 c0 38 -1 39 -32 38 -18 -1 -41 -3 -52 -6z m-121
-139 c0 -20 -5 -28 -15 -27 -99 11 -192 27 -182 31 21 7 176 30 187 27 6 -1
10 -15 10 -31z"/>
<path d="M2402 955 c9 -9 111 -13 132 -6 12 5 -11 8 -59 9 -43 1 -76 0 -73 -3z"/>
<path d="M8178 938 c-18 -5 -14 -6 15 -7 23 -1 36 -5 32 -11 -8 -13 7 -13 41
0 15 6 24 13 21 17 -9 8 -81 9 -109 1z"/>
<path d="M2408 933 c6 -2 18 -2 25 0 6 3 1 5 -13 5 -14 0 -19 -2 -12 -5z"/>
<path d="M2463 923 c9 -2 23 -2 30 0 6 3 -1 5 -18 5 -16 0 -22 -2 -12 -5z"/>
<path d="M2516 913 c-4 -5 -30 -13 -58 -18 -36 -7 -52 -15 -54 -28 -2 -15 7
-17 72 -17 41 0 74 4 74 9 0 5 -29 8 -65 7 -72 -1 -86 8 -27 18 77 14 92 18
92 27 0 11 -24 12 -34 2z"/>
<path d="M8173 904 c-31 -13 -8 -24 52 -24 37 0 65 4 65 10 0 6 -11 10 -24 10
-13 0 -36 2 -52 5 -16 2 -35 2 -41 -1z"/>
<path d="M8160 835 c0 -17 6 -25 18 -26 90 -7 121 3 109 35 -5 12 -20 16 -67
16 -57 0 -60 -1 -60 -25z m110 0 c0 -11 -12 -15 -44 -15 -43 0 -63 10 -49 24
3 3 26 6 50 6 32 0 43 -4 43 -15z"/>
<path d="M2401 824 c0 -11 3 -14 6 -6 3 7 2 16 -1 19 -3 4 -6 -2 -5 -13z"/>
<path d="M2539 833 c0 -5 -2 -18 -3 -30 -2 -13 1 -23 5 -23 4 0 7 14 7 30 -1
27 -7 42 -9 23z"/>
<path d="M2450 790 c-13 -8 -12 -10 3 -10 9 0 17 5 17 10 0 12 -1 12 -20 0z"/>
<path d="M8270 781 c0 -19 -6 -21 -55 -21 -30 0 -55 -4 -55 -10 0 -6 28 -10
65 -10 62 0 65 1 65 24 0 14 -4 28 -10 31 -5 3 -10 -3 -10 -14z"/>
<path d="M2403 725 c0 -8 4 -12 9 -9 5 3 6 10 3 15 -9 13 -12 11 -12 -6z"/>
<path d="M7620 645 l0 -95 220 0 220 0 0 95 0 95 -30 0 -30 0 0 -60 0 -60 -65
0 -65 0 0 45 c0 43 -1 45 -30 45 -29 0 -30 -2 -30 -45 l0 -45 -60 0 -60 0 0
60 0 60 -35 0 -35 0 0 -95z"/>
<path d="M2473 723 c15 -2 39 -2 55 0 15 2 2 4 -28 4 -30 0 -43 -2 -27 -4z"/>
<path d="M4755 666 c-93 -42 -108 -162 -28 -223 l36 -28 193 0 c179 0 195 1
221 21 41 30 65 81 59 127 -8 69 -74 117 -161 117 l-45 0 0 -45 0 -45 48 0
c54 0 67 -6 76 -37 5 -15 1 -28 -13 -42 -20 -20 -33 -21 -186 -21 -153 0 -166
1 -186 21 -14 14 -18 27 -13 42 9 30 9 31 62 37 l47 5 0 40 c0 40 0 40 -40 42
-22 2 -53 -3 -70 -11z"/>
<path d="M3110 608 l-114 -29 -37 20 c-29 17 -54 21 -123 21 -146 0 -176 -32
-176 -185 l0 -85 290 0 290 0 0 40 0 40 -110 0 -110 0 0 33 c0 33 0 33 76 51
153 36 144 31 144 81 0 25 -3 45 -7 44 -5 0 -60 -14 -123 -31z m-185 -92 c9
-14 15 -37 13 -53 l-3 -28 -92 -3 -93 -3 0 44 c0 23 5 48 12 55 7 7 40 12 80
12 61 0 69 -3 83 -24z"/>
<path d="M7622 418 l3 -103 30 0 c27 0 30 3 33 38 l3 37 185 0 184 0 0 30 0
30 -185 0 -185 0 0 35 c0 33 -2 35 -35 35 l-36 0 3 -102z"/>
</g>
</svg>
